<mxfile host="www.draw.io" modified="2019-10-18T04:14:27.314Z" agent="Mozilla/5.0 (Windows NT 10.0; Win64; x64) AppleWebKit/537.36 (KHTML, like Gecko) Chrome/77.0.3865.90 Safari/537.36" etag="Ch1xdYvTNGQJO9qGDywE" version="12.1.3" type="github" pages="1">
  <diagram name="Page-1" id="0783ab3e-0a74-02c8-0abd-f7b4e66b4bec">
    <mxGraphModel dx="1204" dy="678" grid="1" gridSize="10" guides="1" tooltips="1" connect="1" arrows="1" fold="1" page="1" pageScale="1" pageWidth="850" pageHeight="1100" background="#ffffff" math="0" shadow="0">
      <root>
        <mxCell id="0"/>
        <mxCell id="1" parent="0"/>
        <mxCell id="1c1d494c118603dd-1" value="As is: &lt;span style=&quot;font-weight: 400&quot;&gt;Approve flow in a step &lt;i&gt;File Payment authorization&lt;/i&gt;&lt;/span&gt;" style="swimlane;html=1;childLayout=stackLayout;startSize=20;rounded=0;shadow=0;comic=0;labelBackgroundColor=none;strokeColor=#000000;strokeWidth=1;fillColor=#ffffff;fontFamily=Verdana;fontSize=12;fontColor=#000000;align=left;" parent="1" vertex="1">
          <mxGeometry x="40" y="30" width="1430" height="2340" as="geometry"/>
        </mxCell>
        <mxCell id="1c1d494c118603dd-2" value="Webpage" style="swimlane;html=1;startSize=20;" parent="1c1d494c118603dd-1" vertex="1">
          <mxGeometry y="20" width="340" height="2320" as="geometry"/>
        </mxCell>
        <mxCell id="o6uYyF3r6FIAQzFePDf1-14" style="edgeStyle=none;rounded=0;orthogonalLoop=1;jettySize=auto;html=1;entryX=0.5;entryY=0;entryDx=0;entryDy=0;fontSize=10;" parent="1c1d494c118603dd-2" source="60571a20871a0731-4" edge="1">
          <mxGeometry relative="1" as="geometry">
            <mxPoint x="125.5" y="130" as="targetPoint"/>
          </mxGeometry>
        </mxCell>
        <mxCell id="60571a20871a0731-4" value="" style="ellipse;whiteSpace=wrap;html=1;rounded=0;shadow=0;comic=0;labelBackgroundColor=none;strokeColor=#000000;strokeWidth=1;fillColor=#000000;fontFamily=Verdana;fontSize=12;fontColor=#000000;align=center;" parent="1c1d494c118603dd-2" vertex="1">
          <mxGeometry x="105" y="40" width="40" height="40" as="geometry"/>
        </mxCell>
        <mxCell id="o6uYyF3r6FIAQzFePDf1-150" value="" style="shape=mxgraph.bpmn.shape;html=1;verticalLabelPosition=bottom;labelBackgroundColor=#ffffff;verticalAlign=top;perimeter=ellipsePerimeter;outline=end;symbol=terminate;rounded=0;shadow=0;comic=0;strokeColor=#000000;strokeWidth=1;fillColor=#ffffff;fontFamily=Verdana;fontSize=12;fontColor=#000000;align=center;" parent="1c1d494c118603dd-2" vertex="1">
          <mxGeometry x="104" y="1820" width="40" height="40" as="geometry"/>
        </mxCell>
        <mxCell id="okeoiEEO0DwhEaPH8ZXu-27" value="Error&lt;br&gt;claim_file_activity_stage_not_sync" style="rounded=1;whiteSpace=wrap;html=1;fillColor=#f8cecc;strokeColor=#b85450;fontSize=10;" parent="1c1d494c118603dd-2" vertex="1">
          <mxGeometry x="160" y="760" width="74" height="30" as="geometry"/>
        </mxCell>
        <mxCell id="fGoZrcstQ2n1O9F0dgx7-1" style="edgeStyle=orthogonalEdgeStyle;rounded=0;orthogonalLoop=1;jettySize=auto;html=1;entryX=0.25;entryY=0;entryDx=0;entryDy=0;" parent="1c1d494c118603dd-2" source="okeoiEEO0DwhEaPH8ZXu-33" target="eWF3iLJfMrCJOtq91uZB-1" edge="1">
          <mxGeometry relative="1" as="geometry">
            <Array as="points">
              <mxPoint x="55" y="925"/>
            </Array>
          </mxGeometry>
        </mxCell>
        <mxCell id="okeoiEEO0DwhEaPH8ZXu-33" value="Error&lt;br&gt;error_no_decision_status_for_file_payment_authorization" style="rounded=1;whiteSpace=wrap;html=1;fillColor=#f8cecc;strokeColor=#b85450;fontSize=10;" parent="1c1d494c118603dd-2" vertex="1">
          <mxGeometry x="160" y="910" width="74" height="30" as="geometry"/>
        </mxCell>
        <mxCell id="okeoiEEO0DwhEaPH8ZXu-167" style="edgeStyle=none;rounded=0;orthogonalLoop=1;jettySize=auto;html=1;entryX=0.5;entryY=0;entryDx=0;entryDy=0;" parent="1c1d494c118603dd-2" source="okeoiEEO0DwhEaPH8ZXu-165" target="o6uYyF3r6FIAQzFePDf1-150" edge="1">
          <mxGeometry relative="1" as="geometry"/>
        </mxCell>
        <mxCell id="okeoiEEO0DwhEaPH8ZXu-165" value="Claim file result" style="rounded=1;whiteSpace=wrap;html=1;fillColor=#d5e8d4;strokeColor=#82b366;fontSize=10;" parent="1c1d494c118603dd-2" vertex="1">
          <mxGeometry x="72" y="1720" width="105" height="40" as="geometry"/>
        </mxCell>
        <mxCell id="eWF3iLJfMrCJOtq91uZB-4" style="edgeStyle=orthogonalEdgeStyle;rounded=0;orthogonalLoop=1;jettySize=auto;html=1;entryX=0;entryY=0.5;entryDx=0;entryDy=0;" parent="1c1d494c118603dd-2" source="eWF3iLJfMrCJOtq91uZB-1" target="o6uYyF3r6FIAQzFePDf1-150" edge="1">
          <mxGeometry relative="1" as="geometry">
            <Array as="points">
              <mxPoint x="40" y="1840"/>
            </Array>
          </mxGeometry>
        </mxCell>
        <mxCell id="eWF3iLJfMrCJOtq91uZB-1" value="" style="rounded=0;whiteSpace=wrap;html=1;fillColor=#000000;" parent="1c1d494c118603dd-2" vertex="1">
          <mxGeometry x="20" y="1365" width="140" height="10" as="geometry"/>
        </mxCell>
        <mxCell id="eWF3iLJfMrCJOtq91uZB-2" style="edgeStyle=orthogonalEdgeStyle;rounded=0;orthogonalLoop=1;jettySize=auto;html=1;entryX=0.087;entryY=-0.043;entryDx=0;entryDy=0;entryPerimeter=0;" parent="1c1d494c118603dd-2" source="okeoiEEO0DwhEaPH8ZXu-27" target="eWF3iLJfMrCJOtq91uZB-1" edge="1">
          <mxGeometry relative="1" as="geometry">
            <mxPoint x="30" y="1360" as="targetPoint"/>
            <Array as="points">
              <mxPoint x="32" y="775"/>
            </Array>
          </mxGeometry>
        </mxCell>
        <mxCell id="1c1d494c118603dd-3" value="Action layer" style="swimlane;html=1;startSize=20;align=center;" parent="1c1d494c118603dd-1" vertex="1">
          <mxGeometry x="340" y="20" width="420" height="2320" as="geometry"/>
        </mxCell>
        <mxCell id="okeoiEEO0DwhEaPH8ZXu-6" value="Get current task from claim file" style="edgeStyle=none;rounded=0;orthogonalLoop=1;jettySize=auto;html=1;entryX=0.5;entryY=0;entryDx=0;entryDy=0;" parent="1c1d494c118603dd-3" source="okeoiEEO0DwhEaPH8ZXu-2" target="okeoiEEO0DwhEaPH8ZXu-5" edge="1">
          <mxGeometry relative="1" as="geometry"/>
        </mxCell>
        <mxCell id="okeoiEEO0DwhEaPH8ZXu-2" value="Claim File object" style="rounded=1;whiteSpace=wrap;html=1;fillColor=#d5e8d4;strokeColor=#82b366;fontSize=10;" parent="1c1d494c118603dd-3" vertex="1">
          <mxGeometry x="170" y="175" width="105" height="30" as="geometry"/>
        </mxCell>
        <mxCell id="okeoiEEO0DwhEaPH8ZXu-5" value="Current task" style="rounded=1;whiteSpace=wrap;html=1;fillColor=#d5e8d4;strokeColor=#82b366;fontSize=10;" parent="1c1d494c118603dd-3" vertex="1">
          <mxGeometry x="170" y="260" width="105" height="30" as="geometry"/>
        </mxCell>
        <mxCell id="okeoiEEO0DwhEaPH8ZXu-26" value="Compare last activity id from db with last activity id from screen" style="edgeStyle=none;rounded=0;orthogonalLoop=1;jettySize=auto;html=1;entryX=0.5;entryY=0;entryDx=0;entryDy=0;" parent="1c1d494c118603dd-3" source="okeoiEEO0DwhEaPH8ZXu-23" target="okeoiEEO0DwhEaPH8ZXu-25" edge="1">
          <mxGeometry relative="1" as="geometry"/>
        </mxCell>
        <mxCell id="okeoiEEO0DwhEaPH8ZXu-23" value="A claim file from database" style="rounded=1;whiteSpace=wrap;html=1;fillColor=#d5e8d4;strokeColor=#82b366;fontSize=10;" parent="1c1d494c118603dd-3" vertex="1">
          <mxGeometry x="170" y="630" width="105" height="30" as="geometry"/>
        </mxCell>
        <mxCell id="okeoiEEO0DwhEaPH8ZXu-30" value="Match id" style="edgeStyle=none;rounded=0;orthogonalLoop=1;jettySize=auto;html=1;entryX=0.5;entryY=0;entryDx=0;entryDy=0;" parent="1c1d494c118603dd-3" source="okeoiEEO0DwhEaPH8ZXu-25" target="okeoiEEO0DwhEaPH8ZXu-29" edge="1">
          <mxGeometry relative="1" as="geometry"/>
        </mxCell>
        <mxCell id="okeoiEEO0DwhEaPH8ZXu-25" value="" style="rounded=0;whiteSpace=wrap;html=1;fillColor=#000000;" parent="1c1d494c118603dd-3" vertex="1">
          <mxGeometry x="152.5" y="730" width="140" height="10" as="geometry"/>
        </mxCell>
        <mxCell id="okeoiEEO0DwhEaPH8ZXu-32" value="Validate Decision value&lt;br&gt;&lt;font color=&quot;#4d4d4d&quot;&gt;ClaimFileAuthorizeActivityAction.validate&lt;/font&gt;" style="edgeStyle=none;rounded=0;orthogonalLoop=1;jettySize=auto;html=1;entryX=0.5;entryY=0;entryDx=0;entryDy=0;" parent="1c1d494c118603dd-3" source="okeoiEEO0DwhEaPH8ZXu-29" target="okeoiEEO0DwhEaPH8ZXu-31" edge="1">
          <mxGeometry relative="1" as="geometry"/>
        </mxCell>
        <mxCell id="okeoiEEO0DwhEaPH8ZXu-29" value="Ready to validate workflow process of claim file" style="rounded=1;whiteSpace=wrap;html=1;fillColor=#d5e8d4;strokeColor=#82b366;fontSize=10;" parent="1c1d494c118603dd-3" vertex="1">
          <mxGeometry x="170" y="790" width="105" height="40" as="geometry"/>
        </mxCell>
        <mxCell id="okeoiEEO0DwhEaPH8ZXu-38" style="edgeStyle=none;rounded=0;orthogonalLoop=1;jettySize=auto;html=1;entryX=0.5;entryY=0;entryDx=0;entryDy=0;" parent="1c1d494c118603dd-3" source="okeoiEEO0DwhEaPH8ZXu-31" target="okeoiEEO0DwhEaPH8ZXu-37" edge="1">
          <mxGeometry relative="1" as="geometry"/>
        </mxCell>
        <mxCell id="okeoiEEO0DwhEaPH8ZXu-39" value="Not null decision" style="text;html=1;resizable=0;points=[];align=center;verticalAlign=middle;labelBackgroundColor=#ffffff;" parent="okeoiEEO0DwhEaPH8ZXu-38" vertex="1" connectable="0">
          <mxGeometry x="-0.4555" relative="1" as="geometry">
            <mxPoint y="9" as="offset"/>
          </mxGeometry>
        </mxCell>
        <mxCell id="okeoiEEO0DwhEaPH8ZXu-31" value="" style="rounded=0;whiteSpace=wrap;html=1;fillColor=#000000;" parent="1c1d494c118603dd-3" vertex="1">
          <mxGeometry x="152.5" y="920" width="140" height="10" as="geometry"/>
        </mxCell>
        <mxCell id="okeoiEEO0DwhEaPH8ZXu-37" value="Ready to complete workflow process of claim file" style="rounded=1;whiteSpace=wrap;html=1;fillColor=#d5e8d4;strokeColor=#82b366;fontSize=10;" parent="1c1d494c118603dd-3" vertex="1">
          <mxGeometry x="170" y="990" width="105" height="40" as="geometry"/>
        </mxCell>
        <mxCell id="okeoiEEO0DwhEaPH8ZXu-149" value="Ready for update claim file" style="rounded=1;whiteSpace=wrap;html=1;fillColor=#d5e8d4;strokeColor=#82b366;fontSize=10;" parent="1c1d494c118603dd-3" vertex="1">
          <mxGeometry x="170" y="1390" width="105" height="40" as="geometry"/>
        </mxCell>
        <mxCell id="okeoiEEO0DwhEaPH8ZXu-163" value="Ready display result" style="rounded=1;whiteSpace=wrap;html=1;fillColor=#d5e8d4;strokeColor=#82b366;fontSize=10;" parent="1c1d494c118603dd-3" vertex="1">
          <mxGeometry x="180" y="1670" width="105" height="40" as="geometry"/>
        </mxCell>
        <mxCell id="1c1d494c118603dd-4" value="Service layer" style="swimlane;html=1;startSize=20;" parent="1c1d494c118603dd-1" vertex="1">
          <mxGeometry x="760" y="20" width="340" height="2320" as="geometry"/>
        </mxCell>
        <mxCell id="okeoiEEO0DwhEaPH8ZXu-7" value="Ready to get last stage of claim file" style="rounded=1;whiteSpace=wrap;html=1;fillColor=#d5e8d4;strokeColor=#82b366;fontSize=10;" parent="1c1d494c118603dd-4" vertex="1">
          <mxGeometry x="117.5" y="330" width="105" height="30" as="geometry"/>
        </mxCell>
        <mxCell id="okeoiEEO0DwhEaPH8ZXu-90" value="Execute current activity and transit to next" style="edgeStyle=none;rounded=0;orthogonalLoop=1;jettySize=auto;html=1;entryX=0.5;entryY=0;entryDx=0;entryDy=0;" parent="1c1d494c118603dd-4" source="okeoiEEO0DwhEaPH8ZXu-42" target="okeoiEEO0DwhEaPH8ZXu-89" edge="1">
          <mxGeometry relative="1" as="geometry"/>
        </mxCell>
        <mxCell id="okeoiEEO0DwhEaPH8ZXu-42" value="Workflow process of claim file" style="rounded=1;whiteSpace=wrap;html=1;fillColor=#d5e8d4;strokeColor=#82b366;fontSize=10;" parent="1c1d494c118603dd-4" vertex="1">
          <mxGeometry x="117.5" y="1020" width="105" height="40" as="geometry"/>
        </mxCell>
        <mxCell id="okeoiEEO0DwhEaPH8ZXu-92" value="Update activity detail to work flow process as a current task" style="edgeStyle=none;rounded=0;orthogonalLoop=1;jettySize=auto;html=1;entryX=0.472;entryY=-0.008;entryDx=0;entryDy=0;entryPerimeter=0;" parent="1c1d494c118603dd-4" source="okeoiEEO0DwhEaPH8ZXu-89" target="okeoiEEO0DwhEaPH8ZXu-91" edge="1">
          <mxGeometry relative="1" as="geometry"/>
        </mxCell>
        <mxCell id="okeoiEEO0DwhEaPH8ZXu-89" value="Next activity detail" style="rounded=1;whiteSpace=wrap;html=1;fillColor=#d5e8d4;strokeColor=#82b366;fontSize=10;" parent="1c1d494c118603dd-4" vertex="1">
          <mxGeometry x="117.5" y="1110" width="105" height="40" as="geometry"/>
        </mxCell>
        <mxCell id="okeoiEEO0DwhEaPH8ZXu-91" value="Workflow process with an updated current activity" style="rounded=1;whiteSpace=wrap;html=1;fillColor=#d5e8d4;strokeColor=#82b366;fontSize=10;" parent="1c1d494c118603dd-4" vertex="1">
          <mxGeometry x="120" y="1200" width="105" height="40" as="geometry"/>
        </mxCell>
        <mxCell id="okeoiEEO0DwhEaPH8ZXu-153" value="An updated claim file" style="rounded=1;whiteSpace=wrap;html=1;fillColor=#d5e8d4;strokeColor=#82b366;fontSize=10;" parent="1c1d494c118603dd-4" vertex="1">
          <mxGeometry x="117.5" y="1490" width="105" height="40" as="geometry"/>
        </mxCell>
        <mxCell id="o6uYyF3r6FIAQzFePDf1-32" value="Database layer" style="swimlane;html=1;startSize=20;" parent="1c1d494c118603dd-1" vertex="1">
          <mxGeometry x="1100" y="20" width="330" height="2320" as="geometry"/>
        </mxCell>
        <mxCell id="okeoiEEO0DwhEaPH8ZXu-16" style="edgeStyle=none;rounded=0;orthogonalLoop=1;jettySize=auto;html=1;entryX=0.15;entryY=0.05;entryDx=0;entryDy=0;entryPerimeter=0;" parent="o6uYyF3r6FIAQzFePDf1-32" source="okeoiEEO0DwhEaPH8ZXu-10" target="okeoiEEO0DwhEaPH8ZXu-15" edge="1">
          <mxGeometry relative="1" as="geometry"/>
        </mxCell>
        <mxCell id="okeoiEEO0DwhEaPH8ZXu-10" value="Ready to get last stage of claim file" style="rounded=1;whiteSpace=wrap;html=1;fillColor=#d5e8d4;strokeColor=#82b366;fontSize=10;" parent="o6uYyF3r6FIAQzFePDf1-32" vertex="1">
          <mxGeometry x="110" y="380" width="105" height="30" as="geometry"/>
        </mxCell>
        <mxCell id="okeoiEEO0DwhEaPH8ZXu-19" style="edgeStyle=none;rounded=0;orthogonalLoop=1;jettySize=auto;html=1;entryX=0.5;entryY=0;entryDx=0;entryDy=0;" parent="o6uYyF3r6FIAQzFePDf1-32" source="okeoiEEO0DwhEaPH8ZXu-12" target="okeoiEEO0DwhEaPH8ZXu-18" edge="1">
          <mxGeometry relative="1" as="geometry"/>
        </mxCell>
        <mxCell id="okeoiEEO0DwhEaPH8ZXu-12" value="Claim file" style="rounded=1;whiteSpace=wrap;html=1;fillColor=#d5e8d4;strokeColor=#82b366;fontSize=10;" parent="o6uYyF3r6FIAQzFePDf1-32" vertex="1">
          <mxGeometry x="112.5" y="465" width="105" height="30" as="geometry"/>
        </mxCell>
        <mxCell id="okeoiEEO0DwhEaPH8ZXu-17" style="edgeStyle=none;rounded=0;orthogonalLoop=1;jettySize=auto;html=1;entryX=1;entryY=0.5;entryDx=0;entryDy=0;" parent="o6uYyF3r6FIAQzFePDf1-32" source="okeoiEEO0DwhEaPH8ZXu-15" target="okeoiEEO0DwhEaPH8ZXu-12" edge="1">
          <mxGeometry relative="1" as="geometry"/>
        </mxCell>
        <mxCell id="okeoiEEO0DwhEaPH8ZXu-15" value="ClaimFile" style="shape=cylinder;whiteSpace=wrap;html=1;boundedLbl=1;backgroundOutline=1;strokeColor=#d6b656;fillColor=#fff2cc;fontSize=10;align=center;" parent="o6uYyF3r6FIAQzFePDf1-32" vertex="1">
          <mxGeometry x="250" y="430" width="60" height="50" as="geometry"/>
        </mxCell>
        <mxCell id="okeoiEEO0DwhEaPH8ZXu-18" value="A claim file with a candidate flag" style="rounded=1;whiteSpace=wrap;html=1;fillColor=#d5e8d4;strokeColor=#82b366;fontSize=10;" parent="o6uYyF3r6FIAQzFePDf1-32" vertex="1">
          <mxGeometry x="110" y="630" width="105" height="30" as="geometry"/>
        </mxCell>
        <mxCell id="okeoiEEO0DwhEaPH8ZXu-20" value="workflowProcessDao.applyCandidateFlag&lt;br&gt;- candidate flag depend on user group&lt;br&gt;- admin and supper admin are always candidate flag = true&lt;br&gt;- candidate flag = true when current user group is in&lt;br&gt;&amp;nbsp; responsibility role of each stage of claim file." style="text;html=1;fillColor=none;labelBackgroundColor=#ffffff;" parent="o6uYyF3r6FIAQzFePDf1-32" vertex="1">
          <mxGeometry x="60" y="510" width="250" height="30" as="geometry"/>
        </mxCell>
        <mxCell id="okeoiEEO0DwhEaPH8ZXu-146" style="edgeStyle=none;rounded=0;orthogonalLoop=1;jettySize=auto;html=1;entryX=0.5;entryY=0;entryDx=0;entryDy=0;" parent="o6uYyF3r6FIAQzFePDf1-32" source="okeoiEEO0DwhEaPH8ZXu-141" target="okeoiEEO0DwhEaPH8ZXu-145" edge="1">
          <mxGeometry relative="1" as="geometry"/>
        </mxCell>
        <mxCell id="okeoiEEO0DwhEaPH8ZXu-141" value="Workflow process with an updated current activity" style="rounded=1;whiteSpace=wrap;html=1;fillColor=#d5e8d4;strokeColor=#82b366;fontSize=10;" parent="o6uYyF3r6FIAQzFePDf1-32" vertex="1">
          <mxGeometry x="110" y="1260" width="105" height="40" as="geometry"/>
        </mxCell>
        <mxCell id="okeoiEEO0DwhEaPH8ZXu-148" style="edgeStyle=none;rounded=0;orthogonalLoop=1;jettySize=auto;html=1;entryX=1;entryY=0.75;entryDx=0;entryDy=0;" parent="o6uYyF3r6FIAQzFePDf1-32" source="okeoiEEO0DwhEaPH8ZXu-145" target="okeoiEEO0DwhEaPH8ZXu-147" edge="1">
          <mxGeometry relative="1" as="geometry"/>
        </mxCell>
        <mxCell id="okeoiEEO0DwhEaPH8ZXu-145" value="&lt;span style=&quot;font-size: 12px ; text-align: left ; white-space: nowrap&quot;&gt;workflow_process_instance&lt;/span&gt;" style="shape=cylinder;whiteSpace=wrap;html=1;boundedLbl=1;backgroundOutline=1;strokeColor=#d6b656;fillColor=#fff2cc;fontSize=10;align=center;" parent="o6uYyF3r6FIAQzFePDf1-32" vertex="1">
          <mxGeometry x="250" y="1320" width="60" height="50" as="geometry"/>
        </mxCell>
        <mxCell id="okeoiEEO0DwhEaPH8ZXu-147" value="save complete" style="rounded=1;whiteSpace=wrap;html=1;fillColor=#d5e8d4;strokeColor=#82b366;fontSize=10;" parent="o6uYyF3r6FIAQzFePDf1-32" vertex="1">
          <mxGeometry x="110" y="1390" width="105" height="40" as="geometry"/>
        </mxCell>
        <mxCell id="okeoiEEO0DwhEaPH8ZXu-160" style="edgeStyle=none;rounded=0;orthogonalLoop=1;jettySize=auto;html=1;entryX=-0.045;entryY=0.106;entryDx=0;entryDy=0;entryPerimeter=0;" parent="o6uYyF3r6FIAQzFePDf1-32" source="okeoiEEO0DwhEaPH8ZXu-156" target="okeoiEEO0DwhEaPH8ZXu-159" edge="1">
          <mxGeometry relative="1" as="geometry"/>
        </mxCell>
        <mxCell id="okeoiEEO0DwhEaPH8ZXu-156" value="An updated claim file" style="rounded=1;whiteSpace=wrap;html=1;fillColor=#d5e8d4;strokeColor=#82b366;fontSize=10;" parent="o6uYyF3r6FIAQzFePDf1-32" vertex="1">
          <mxGeometry x="110" y="1550" width="105" height="40" as="geometry"/>
        </mxCell>
        <mxCell id="okeoiEEO0DwhEaPH8ZXu-162" style="edgeStyle=none;rounded=0;orthogonalLoop=1;jettySize=auto;html=1;entryX=1;entryY=0.5;entryDx=0;entryDy=0;" parent="o6uYyF3r6FIAQzFePDf1-32" source="okeoiEEO0DwhEaPH8ZXu-159" target="okeoiEEO0DwhEaPH8ZXu-161" edge="1">
          <mxGeometry relative="1" as="geometry"/>
        </mxCell>
        <mxCell id="okeoiEEO0DwhEaPH8ZXu-159" value="ClaimFile" style="shape=cylinder;whiteSpace=wrap;html=1;boundedLbl=1;backgroundOutline=1;strokeColor=#d6b656;fillColor=#fff2cc;fontSize=10;align=center;" parent="o6uYyF3r6FIAQzFePDf1-32" vertex="1">
          <mxGeometry x="250" y="1610" width="60" height="50" as="geometry"/>
        </mxCell>
        <mxCell id="okeoiEEO0DwhEaPH8ZXu-161" value="update complete" style="rounded=1;whiteSpace=wrap;html=1;fillColor=#d5e8d4;strokeColor=#82b366;fontSize=10;" parent="o6uYyF3r6FIAQzFePDf1-32" vertex="1">
          <mxGeometry x="110" y="1670" width="105" height="40" as="geometry"/>
        </mxCell>
        <mxCell id="okeoiEEO0DwhEaPH8ZXu-8" style="edgeStyle=none;rounded=0;orthogonalLoop=1;jettySize=auto;html=1;entryX=0;entryY=0.5;entryDx=0;entryDy=0;" parent="1c1d494c118603dd-1" source="okeoiEEO0DwhEaPH8ZXu-5" target="okeoiEEO0DwhEaPH8ZXu-7" edge="1">
          <mxGeometry relative="1" as="geometry"/>
        </mxCell>
        <mxCell id="okeoiEEO0DwhEaPH8ZXu-9" value="&lt;span style=&quot;font-size: 10px&quot;&gt;ClaimManagerService.getClaimFileByIdWithCandidateAccessibility(calimId, user)&lt;/span&gt;" style="text;html=1;resizable=0;points=[];align=center;verticalAlign=middle;labelBackgroundColor=#ffffff;" parent="okeoiEEO0DwhEaPH8ZXu-8" vertex="1" connectable="0">
          <mxGeometry x="-0.1042" y="-1" relative="1" as="geometry">
            <mxPoint x="-2.5" y="-4" as="offset"/>
          </mxGeometry>
        </mxCell>
        <mxCell id="okeoiEEO0DwhEaPH8ZXu-13" style="edgeStyle=none;rounded=0;orthogonalLoop=1;jettySize=auto;html=1;entryX=0;entryY=0.5;entryDx=0;entryDy=0;" parent="1c1d494c118603dd-1" source="okeoiEEO0DwhEaPH8ZXu-7" target="okeoiEEO0DwhEaPH8ZXu-10" edge="1">
          <mxGeometry relative="1" as="geometry"/>
        </mxCell>
        <mxCell id="okeoiEEO0DwhEaPH8ZXu-14" value="claimFileDao.getClaimFileById" style="text;html=1;resizable=0;points=[];align=center;verticalAlign=middle;labelBackgroundColor=#ffffff;" parent="okeoiEEO0DwhEaPH8ZXu-13" vertex="1" connectable="0">
          <mxGeometry x="-0.1346" relative="1" as="geometry">
            <mxPoint as="offset"/>
          </mxGeometry>
        </mxCell>
        <mxCell id="okeoiEEO0DwhEaPH8ZXu-24" style="edgeStyle=none;rounded=0;orthogonalLoop=1;jettySize=auto;html=1;entryX=1;entryY=0.5;entryDx=0;entryDy=0;" parent="1c1d494c118603dd-1" source="okeoiEEO0DwhEaPH8ZXu-18" target="okeoiEEO0DwhEaPH8ZXu-23" edge="1">
          <mxGeometry relative="1" as="geometry"/>
        </mxCell>
        <mxCell id="okeoiEEO0DwhEaPH8ZXu-28" value="Not match ID" style="edgeStyle=none;rounded=0;orthogonalLoop=1;jettySize=auto;html=1;entryX=1;entryY=0.5;entryDx=0;entryDy=0;" parent="1c1d494c118603dd-1" source="okeoiEEO0DwhEaPH8ZXu-25" target="okeoiEEO0DwhEaPH8ZXu-27" edge="1">
          <mxGeometry relative="1" as="geometry"/>
        </mxCell>
        <mxCell id="okeoiEEO0DwhEaPH8ZXu-35" style="edgeStyle=none;rounded=0;orthogonalLoop=1;jettySize=auto;html=1;entryX=1;entryY=0.5;entryDx=0;entryDy=0;" parent="1c1d494c118603dd-1" source="okeoiEEO0DwhEaPH8ZXu-31" target="okeoiEEO0DwhEaPH8ZXu-33" edge="1">
          <mxGeometry relative="1" as="geometry"/>
        </mxCell>
        <mxCell id="okeoiEEO0DwhEaPH8ZXu-36" value="Null decision" style="text;html=1;resizable=0;points=[];align=center;verticalAlign=middle;labelBackgroundColor=#ffffff;" parent="okeoiEEO0DwhEaPH8ZXu-35" vertex="1" connectable="0">
          <mxGeometry x="0.2964" y="-1" relative="1" as="geometry">
            <mxPoint as="offset"/>
          </mxGeometry>
        </mxCell>
        <mxCell id="okeoiEEO0DwhEaPH8ZXu-43" style="edgeStyle=none;rounded=0;orthogonalLoop=1;jettySize=auto;html=1;entryX=0;entryY=0.5;entryDx=0;entryDy=0;" parent="1c1d494c118603dd-1" source="okeoiEEO0DwhEaPH8ZXu-37" target="okeoiEEO0DwhEaPH8ZXu-42" edge="1">
          <mxGeometry relative="1" as="geometry"/>
        </mxCell>
        <mxCell id="okeoiEEO0DwhEaPH8ZXu-44" value="ExecutionService.completeTaskForProcessInstance" style="text;html=1;resizable=0;points=[];align=center;verticalAlign=middle;labelBackgroundColor=#ffffff;" parent="okeoiEEO0DwhEaPH8ZXu-43" vertex="1" connectable="0">
          <mxGeometry x="-0.2072" y="-1" relative="1" as="geometry">
            <mxPoint x="21" y="-1" as="offset"/>
          </mxGeometry>
        </mxCell>
        <mxCell id="okeoiEEO0DwhEaPH8ZXu-142" style="edgeStyle=none;rounded=0;orthogonalLoop=1;jettySize=auto;html=1;entryX=0;entryY=0.5;entryDx=0;entryDy=0;" parent="1c1d494c118603dd-1" source="okeoiEEO0DwhEaPH8ZXu-91" target="okeoiEEO0DwhEaPH8ZXu-141" edge="1">
          <mxGeometry relative="1" as="geometry"/>
        </mxCell>
        <mxCell id="okeoiEEO0DwhEaPH8ZXu-143" value="workflowProcessInstanceDao.merge" style="text;html=1;resizable=0;points=[];align=center;verticalAlign=middle;labelBackgroundColor=#ffffff;" parent="okeoiEEO0DwhEaPH8ZXu-142" vertex="1" connectable="0">
          <mxGeometry x="-0.2857" relative="1" as="geometry">
            <mxPoint x="14" y="11" as="offset"/>
          </mxGeometry>
        </mxCell>
        <mxCell id="okeoiEEO0DwhEaPH8ZXu-152" style="edgeStyle=none;rounded=0;orthogonalLoop=1;jettySize=auto;html=1;entryX=1;entryY=0.5;entryDx=0;entryDy=0;" parent="1c1d494c118603dd-1" source="okeoiEEO0DwhEaPH8ZXu-147" target="okeoiEEO0DwhEaPH8ZXu-149" edge="1">
          <mxGeometry relative="1" as="geometry"/>
        </mxCell>
        <mxCell id="okeoiEEO0DwhEaPH8ZXu-154" style="edgeStyle=none;rounded=0;orthogonalLoop=1;jettySize=auto;html=1;entryX=0;entryY=0.5;entryDx=0;entryDy=0;" parent="1c1d494c118603dd-1" source="okeoiEEO0DwhEaPH8ZXu-149" target="okeoiEEO0DwhEaPH8ZXu-153" edge="1">
          <mxGeometry relative="1" as="geometry"/>
        </mxCell>
        <mxCell id="okeoiEEO0DwhEaPH8ZXu-155" value="&lt;span style=&quot;font-size: 10px&quot;&gt;ClaimManagerService.update&lt;/span&gt;" style="text;html=1;resizable=0;points=[];align=center;verticalAlign=middle;labelBackgroundColor=#ffffff;" parent="okeoiEEO0DwhEaPH8ZXu-154" vertex="1" connectable="0">
          <mxGeometry x="-0.2189" y="-2" relative="1" as="geometry">
            <mxPoint as="offset"/>
          </mxGeometry>
        </mxCell>
        <mxCell id="okeoiEEO0DwhEaPH8ZXu-157" style="edgeStyle=none;rounded=0;orthogonalLoop=1;jettySize=auto;html=1;entryX=0;entryY=0.5;entryDx=0;entryDy=0;" parent="1c1d494c118603dd-1" source="okeoiEEO0DwhEaPH8ZXu-153" target="okeoiEEO0DwhEaPH8ZXu-156" edge="1">
          <mxGeometry relative="1" as="geometry"/>
        </mxCell>
        <mxCell id="okeoiEEO0DwhEaPH8ZXu-158" value="claimFileDao.update" style="text;html=1;resizable=0;points=[];align=center;verticalAlign=middle;labelBackgroundColor=#ffffff;" parent="okeoiEEO0DwhEaPH8ZXu-157" vertex="1" connectable="0">
          <mxGeometry x="-0.3428" y="-1" relative="1" as="geometry">
            <mxPoint x="12.5" y="1.5" as="offset"/>
          </mxGeometry>
        </mxCell>
        <mxCell id="okeoiEEO0DwhEaPH8ZXu-164" style="edgeStyle=none;rounded=0;orthogonalLoop=1;jettySize=auto;html=1;entryX=1;entryY=0.5;entryDx=0;entryDy=0;" parent="1c1d494c118603dd-1" source="okeoiEEO0DwhEaPH8ZXu-161" target="okeoiEEO0DwhEaPH8ZXu-163" edge="1">
          <mxGeometry relative="1" as="geometry"/>
        </mxCell>
        <mxCell id="okeoiEEO0DwhEaPH8ZXu-166" style="edgeStyle=none;rounded=0;orthogonalLoop=1;jettySize=auto;html=1;entryX=1;entryY=0.5;entryDx=0;entryDy=0;" parent="1c1d494c118603dd-1" source="okeoiEEO0DwhEaPH8ZXu-163" target="okeoiEEO0DwhEaPH8ZXu-165" edge="1">
          <mxGeometry relative="1" as="geometry"/>
        </mxCell>
        <mxCell id="okeoiEEO0DwhEaPH8ZXu-3" style="rounded=0;orthogonalLoop=1;jettySize=auto;html=1;entryX=0;entryY=0.5;entryDx=0;entryDy=0;" parent="1" source="okeoiEEO0DwhEaPH8ZXu-1" target="okeoiEEO0DwhEaPH8ZXu-2" edge="1">
          <mxGeometry relative="1" as="geometry"/>
        </mxCell>
        <mxCell id="okeoiEEO0DwhEaPH8ZXu-4" value="ClaimAction.advance" style="text;html=1;resizable=0;points=[];align=center;verticalAlign=middle;labelBackgroundColor=#ffffff;" parent="okeoiEEO0DwhEaPH8ZXu-3" vertex="1" connectable="0">
          <mxGeometry x="-0.1426" y="2" relative="1" as="geometry">
            <mxPoint as="offset"/>
          </mxGeometry>
        </mxCell>
        <mxCell id="okeoiEEO0DwhEaPH8ZXu-1" value="Authorization and decision page" style="rounded=1;whiteSpace=wrap;html=1;fillColor=#d5e8d4;strokeColor=#82b366;fontSize=10;" parent="1" vertex="1">
          <mxGeometry x="113" y="180" width="105" height="30" as="geometry"/>
        </mxCell>
      </root>
    </mxGraphModel>
  </diagram>
</mxfile>
